Coordinates
version=1
nRows=10
nColumns=40
inDegrees=yes

Units are S.I. units (second, meters, Newtons, ...)
Angles are in degrees.

endheader
time	pelvis_tilt	pelvis_list	pelvis_rotation	pelvis_tx	pelvis_ty	pelvis_tz	hip_flexion_r	hip_adduction_r	hip_rotation_r	knee_angle_r	knee_angle_r_beta	ankle_angle_r	subtalar_angle_r	mtp_angle_r	hip_flexion_l	hip_adduction_l	hip_rotation_l	knee_angle_l	knee_angle_l_beta	ankle_angle_l	subtalar_angle_l	mtp_angle_l	lumbar_extension	lumbar_bending	lumbar_rotation	arm_flex_r	arm_add_r	arm_rot_r	elbow_flex_r	pro_sup_r	wrist_flex_r	wrist_dev_r	arm_flex_l	arm_add_l	arm_rot_l	elbow_flex_l	pro_sup_l	wrist_flex_l	wrist_dev_l
     49.99000000	     -5.05569441	     -3.81034244	      0.86752259	      0.97921168	      0.92058998	      0.40391557	     10.48896016	     -7.46586064	     -9.70161199	     49.77184654	     49.77184654	      5.76392750	    -10.91398245	     -6.64626825	     21.63992251	     -2.93453885	     -2.01841853	     29.70923201	     29.70923201	     16.10027297	    -10.70586777	      3.55093515	     -7.59326648	      2.83286596	      3.61667196	     34.84103803	    -15.05530261	     -9.26843863	     53.54593261	     45.04578556	      0.00000000	      0.00000000	      7.71377685	    -12.95064162	     11.12080679	     31.27157858	     44.73127592	      0.00000000	      0.00000000
     50.00957143	     -4.52840053	     -3.91640964	      0.47253076	      0.97823729	      0.91963485	      0.40212285	     12.29559406	     -7.55559179	     -8.73628705	     53.13732775	     53.13732775	      5.24034859	    -11.16330028	     -6.98413480	     21.10709584	     -2.95934946	     -1.99746328	     30.58251083	     30.58251083	     16.75042602	    -11.36604270	      3.26492694	     -8.24910389	      3.04632406	      2.73024857	     31.37687896	    -13.98899953	     -8.94490347	     52.03581820	     45.06951077	      0.00000000	      0.00000000	      9.43184126	    -13.37033492	     11.01630735	     31.68953330	     44.77524169	      0.00000000	      0.00000000
     50.02914286	     -4.59632247	     -3.90491767	     -0.04148678	      0.97670727	      0.91753678	      0.40035527	     15.02574587	     -7.59584319	     -7.45207190	     56.61731904	     56.61731904	      4.73868473	    -11.88890901	     -6.74841690	     21.30136506	     -2.79234633	     -1.88431778	     31.55002362	     31.55002362	     17.21617610	    -12.46981202	      3.17783610	     -8.16356545	      3.20013820	      2.60996327	     27.71097045	    -13.75873986	     -8.69371264	     49.66390626	     45.13063851	      0.00000000	      0.00000000	     11.42103739	    -13.57497643	     10.90938594	     32.21137743	     44.82904328	      0.00000000	      0.00000000
     50.04871429	     -4.27781068	     -4.09536878	     -0.53118317	      0.97562134	      0.91629824	      0.39883115	     17.13922781	     -7.30400903	     -6.34109192	     59.56152105	     59.56152105	      5.79606836	    -11.51789846	     -2.18571374	     20.97159684	     -2.79342745	     -1.56275145	     32.40940790	     32.40940790	     18.01453523	    -13.64515287	      3.98074529	     -8.46320386	      3.54507509	      2.58088588	     24.85474216	    -13.33536472	     -8.59746233	     44.59694537	     45.33962883	      0.00000000	      0.00000000	     14.21442614	    -13.50815670	     11.38243725	     31.04475835	     44.88556345	      0.00000000	      0.00000000
     50.06828571	     -3.98091319	     -4.22932180	     -1.07811370	      0.97464668	      0.91499534	      0.39759290	     19.04975717	     -6.98576430	     -5.33452112	     61.63074366	     61.63074366	      5.57161995	    -12.04908531	     -1.83729983	     20.60474523	     -2.82494887	     -1.52595821	     33.17474273	     33.17474273	     18.57136698	    -14.53978526	      3.91784066	     -8.86853278	      3.85007614	      2.51755396	     21.21736533	    -13.01552101	     -8.43264112	     42.36823721	     45.39964568	      0.00000000	      0.00000000	     16.17942784	    -13.79684903	     11.18417856	     32.01930357	     44.95421775	      0.00000000	      0.00000000
     50.08785714	     -3.63932266	     -4.41112455	     -1.66551022	      0.97380700	      0.91399600	      0.39665273	     20.75649200	     -6.54069369	     -4.45282249	     62.99560395	     62.99560395	      5.64965967	    -12.54378661	     -1.16545416	     20.10484917	     -2.92002720	     -1.51931210	     33.81347245	     33.81347245	     19.14025593	    -15.38836828	      4.05987882	     -9.30267404	      4.23149018	      2.67135228	     17.79713743	    -12.83540213	     -8.30092692	     39.56027448	     45.48704728	      0.00000000	      0.00000000	     18.25528215	    -13.99513125	     11.01287648	     32.91848021	     45.02276522	      0.00000000	      0.00000000
     50.10742857	     -3.32887347	     -4.56786496	     -2.29624304	      0.97304728	      0.91324546	      0.39601637	     22.34853801	     -6.07428870	     -3.69635420	     63.62059375	     63.62059375	      5.91084422	    -13.05246877	     -0.59734583	     19.55022235	     -3.02801047	     -1.64165220	     34.30775271	     34.30775271	     19.71498653	    -16.06910564	      4.28803555	     -9.68723921	      4.60430153	      2.72598661	     14.63039002	    -12.59955224	     -8.19841676	     36.74183131	     45.57833027	      0.00000000	      0.00000000	     20.23061079	    -14.29296116	     10.80732866	     33.79166136	     45.09179625	      0.00000000	      0.00000000
     50.12700000	     -3.04378434	     -4.71264719	     -2.96016004	      0.97234515	      0.91290613	      0.39568273	     23.82324066	     -5.60800363	     -3.10837756	     63.51192973	     63.51192973	      6.60074155	    -13.30706463	      0.57467580	     18.92797501	     -3.14917585	     -1.84221628	     34.66675541	     34.66675541	     20.61988955	    -16.43387373	      5.46133579	     -9.99591110	      4.97549830	      2.34743686	     12.66387110	    -12.06794875	     -8.51827235	     31.87637207	     45.81265449	      0.00000000	      0.00000000	     21.95376425	    -14.82934933	     10.47425444	     34.51247020	     45.20743234	      0.00000000	      0.00000000
     50.14657143	     -2.83029989	     -4.86329791	     -3.69562732	      0.97168034	      0.91292392	      0.39569182	     25.13773162	     -5.07195813	     -2.62652838	     62.49819826	     62.49819826	      7.00041619	    -13.76071118	      0.47352434	     18.21401507	     -3.32859901	     -2.19720561	     34.69934813	     34.69934813	     21.00519734	    -16.83075292	      5.56497765	    -10.28744543	      5.38261622	      2.41259213	      9.52187811	    -12.01294128	     -8.51674632	     30.06813098	     45.86950720	      0.00000000	      0.00000000	     23.67931840	    -15.27734838	     10.07676697	     35.79883153	     45.29166339	      0.00000000	      0.00000000
     50.16614286	     -2.68087900	     -4.98755141	     -4.46493386	      0.97103795	      0.91338734	      0.39608615	     26.27139769	     -4.53847610	     -2.31325860	     60.64534842	     60.64534842	      7.49542600	    -14.02958804	      0.01450343	     17.42183147	     -3.52114967	     -2.68546012	     34.46644794	     34.46644794	     21.36295077	    -17.09275679	      5.80970486	    -10.51759446	      5.72934462	      2.54031346	      6.57123629	    -12.04177354	     -8.54088304	     28.14833805	     45.93819197	      0.00000000	      0.00000000	     25.34237054	    -15.72311081	      9.56968668	     37.30472945	     45.38914405	      0.00000000	      0.00000000
